<svg width="30" height="30" viewBox="0 0 30 30" fill="none" xmlns="http://www.w3.org/2000/svg">
<g clip-path="url(#clip0_440_106)">
<path d="M15 1.18744C11.7588 1.14077 8.60895 2.26194 6.12614 4.34605C3.64332 6.43017 1.99331 9.33807 1.47762 12.5384C0.961931 15.7387 1.615 19.0177 3.31748 21.7762C5.01996 24.5348 7.65819 26.5886 10.75 27.5624C11.375 27.6874 11.875 26.9999 11.875 26.4374V24.6249C8.12504 25.4374 6.93754 22.8124 6.93754 22.8124C6.69371 22.0212 6.21396 21.3234 5.56254 20.8124C4.31254 19.9374 5.62504 19.9999 5.62504 19.9999C6.04244 20.0332 6.44629 20.1636 6.80438 20.3806C7.16247 20.5976 7.46489 20.8953 7.68754 21.2499C8.75004 23.0624 11.125 22.8749 11.875 22.5624C11.8094 21.941 11.9176 21.3135 12.1875 20.7499C7.93754 19.9999 5.62504 17.4999 5.62504 14.1249C5.58033 12.3647 6.23161 10.6579 7.43754 9.37494C7.1016 8.75433 6.94151 8.05376 6.97455 7.34884C7.0076 6.64391 7.23252 5.9614 7.62504 5.37494C8.37988 5.38978 9.12379 5.55813 9.81147 5.86974C10.4992 6.18134 11.1162 6.62968 11.625 7.18744C12.7103 6.81711 13.854 6.64767 15 6.68744C16.1412 6.65207 17.2806 6.79977 18.375 7.12494C18.8915 6.58137 19.5114 6.14654 20.1983 5.84601C20.8852 5.54548 21.6253 5.38532 22.375 5.37494C22.759 5.96316 22.9838 6.64089 23.0276 7.34196C23.0714 8.04303 22.9327 8.74348 22.625 9.37494C23.8082 10.6678 24.4366 12.3735 24.375 14.1249C24.375 17.4999 22.0625 19.9999 17.8125 20.7499C18.0825 21.3135 18.1907 21.941 18.125 22.5624V26.4374C18.1248 26.5906 18.1558 26.7422 18.2162 26.8829C18.2766 27.0236 18.3651 27.1505 18.4763 27.2559C18.5875 27.3612 18.719 27.4427 18.8628 27.4954C19.0066 27.5481 19.1596 27.5709 19.3125 27.5624C22.3307 26.5152 24.8824 24.4362 26.5177 21.6917C28.1531 18.9473 28.7671 15.7136 28.2516 12.5608C27.7361 9.40792 26.1241 6.53825 23.6998 4.45758C21.2756 2.37691 18.1946 1.21882 15 1.18744Z" fill="black"/>
</g>
<defs>
<clipPath id="clip0_440_106">
<rect width="30" height="30" fill="white"/>
</clipPath>
</defs>
</svg>
