<svg width="30" height="30" viewBox="0 0 30 30" fill="none" xmlns="http://www.w3.org/2000/svg">
<g clip-path="url(#clip0_440_87)">
<mask id="mask0_440_87" style="mask-type:luminance" maskUnits="userSpaceOnUse" x="0" y="0" width="30" height="30">
<path d="M29.446 12.2727H15.4688V18.0682H23.5142C22.7642 21.75 19.6278 23.8636 15.4688 23.8636C10.5597 23.8636 6.60512 19.9091 6.60512 15C6.60512 10.0909 10.5597 6.13637 15.4688 6.13637C17.5824 6.13637 19.4915 6.88637 20.9915 8.11364L25.3551 3.75C22.696 1.43182 19.2869 0 15.4688 0C7.15057 0 0.46875 6.68182 0.46875 15C0.46875 23.3182 7.15057 30 15.4688 30C22.9688 30 29.7869 24.5455 29.7869 15C29.7869 14.1136 29.6506 13.1591 29.446 12.2727Z" fill="white"/>
</mask>
<g mask="url(#mask0_440_87)">
<path d="M-0.89502 23.8635V6.13623L10.6959 14.9999L-0.89502 23.8635Z" fill="#FBBC05"/>
</g>
<mask id="mask1_440_87" style="mask-type:luminance" maskUnits="userSpaceOnUse" x="0" y="0" width="30" height="30">
<path d="M29.446 12.2727H15.4688V18.0682H23.5142C22.7642 21.75 19.6278 23.8636 15.4688 23.8636C10.5597 23.8636 6.60512 19.9091 6.60512 15C6.60512 10.0909 10.5597 6.13637 15.4688 6.13637C17.5824 6.13637 19.4915 6.88637 20.9915 8.11364L25.3551 3.75C22.696 1.43182 19.2869 0 15.4688 0C7.15057 0 0.46875 6.68182 0.46875 15C0.46875 23.3182 7.15057 30 15.4688 30C22.9688 30 29.7869 24.5455 29.7869 15C29.7869 14.1136 29.6506 13.1591 29.446 12.2727Z" fill="white"/>
</mask>
<g mask="url(#mask1_440_87)">
<path d="M-0.89502 6.13623L10.6959 14.9999L15.4686 10.8408L31.8323 8.18169V-1.36377H-0.89502V6.13623Z" fill="#EA4335"/>
</g>
<mask id="mask2_440_87" style="mask-type:luminance" maskUnits="userSpaceOnUse" x="0" y="0" width="30" height="30">
<path d="M29.446 12.2727H15.4688V18.0682H23.5142C22.7642 21.75 19.6278 23.8636 15.4688 23.8636C10.5597 23.8636 6.60512 19.9091 6.60512 15C6.60512 10.0909 10.5597 6.13637 15.4688 6.13637C17.5824 6.13637 19.4915 6.88637 20.9915 8.11364L25.3551 3.75C22.696 1.43182 19.2869 0 15.4688 0C7.15057 0 0.46875 6.68182 0.46875 15C0.46875 23.3182 7.15057 30 15.4688 30C22.9688 30 29.7869 24.5455 29.7869 15C29.7869 14.1136 29.6506 13.1591 29.446 12.2727Z" fill="white"/>
</mask>
<g mask="url(#mask2_440_87)">
<path d="M-0.89502 23.8635L19.5595 8.18169L24.9459 8.86351L31.8323 -1.36377V31.3635H-0.89502V23.8635Z" fill="#34A853"/>
</g>
<mask id="mask3_440_87" style="mask-type:luminance" maskUnits="userSpaceOnUse" x="0" y="0" width="30" height="30">
<path d="M29.446 12.2727H15.4688V18.0682H23.5142C22.7642 21.75 19.6278 23.8636 15.4688 23.8636C10.5597 23.8636 6.60512 19.9091 6.60512 15C6.60512 10.0909 10.5597 6.13637 15.4688 6.13637C17.5824 6.13637 19.4915 6.88637 20.9915 8.11364L25.3551 3.75C22.696 1.43182 19.2869 0 15.4688 0C7.15057 0 0.46875 6.68182 0.46875 15C0.46875 23.3182 7.15057 30 15.4688 30C22.9688 30 29.7869 24.5455 29.7869 15C29.7869 14.1136 29.6506 13.1591 29.446 12.2727Z" fill="white"/>
</mask>
<g mask="url(#mask3_440_87)">
<path d="M31.8324 31.3635L10.696 14.9999L7.96875 12.9544L31.8324 6.13623V31.3635Z" fill="#4285F4"/>
</g>
</g>
<defs>
<clipPath id="clip0_440_87">
<rect width="30" height="30" fill="white"/>
</clipPath>
</defs>
</svg>
