<svg width="64" height="64" viewBox="0 0 64 64" fill="none" xmlns="http://www.w3.org/2000/svg">
<path d="M43.9998 30.0004H24.8198L29.4198 25.4204C29.7964 25.0438 30.008 24.533 30.008 24.0004C30.008 23.4678 29.7964 22.957 29.4198 22.5804C29.0432 22.2038 28.5324 21.9922 27.9998 21.9922C27.4672 21.9922 26.9564 22.2038 26.5798 22.5804L18.5798 30.5804C18.3977 30.7706 18.255 30.9949 18.1598 31.2404C17.9598 31.7273 17.9598 32.2734 18.1598 32.7604C18.255 33.0059 18.3977 33.2302 18.5798 33.4204L26.5798 41.4204C26.7657 41.6078 26.9869 41.7566 27.2306 41.8582C27.4744 41.9597 27.7358 42.012 27.9998 42.012C28.2638 42.012 28.5252 41.9597 28.7689 41.8582C29.0127 41.7566 29.2339 41.6078 29.4198 41.4204C29.6073 41.2344 29.756 41.0132 29.8576 40.7695C29.9591 40.5258 30.0114 40.2644 30.0114 40.0004C30.0114 39.7363 29.9591 39.4749 29.8576 39.2312C29.756 38.9875 29.6073 38.7663 29.4198 38.5804L24.8198 34.0004H43.9998C44.5302 34.0004 45.0389 33.7897 45.414 33.4146C45.7891 33.0395 45.9998 32.5308 45.9998 32.0004C45.9998 31.4699 45.7891 30.9612 45.414 30.5862C45.0389 30.2111 44.5302 30.0004 43.9998 30.0004Z" fill="black"/>
</svg>
