<svg width="20" height="20" viewBox="0 0 20 20" fill="none" xmlns="http://www.w3.org/2000/svg">
<path fill-rule="evenodd" clip-rule="evenodd" d="M10.5948 2.86777L12.5253 6.74724C12.62 6.94223 12.8063 7.07853 13.023 7.11141L17.3441 7.73569C17.5195 7.75959 17.6779 7.85155 17.7841 7.99112C17.8903 8.13069 17.9355 8.30629 17.9097 8.47888C17.888 8.62075 17.819 8.75148 17.7137 8.85048L14.5841 11.8827C14.4259 12.0321 14.355 12.2502 14.3955 12.4624L15.1497 16.7357C15.2042 17.0879 14.9628 17.4183 14.6067 17.4789C14.4598 17.5016 14.3095 17.4782 14.1768 17.4121L10.3233 15.398C10.1308 15.2935 9.89741 15.2935 9.70491 15.398L5.82874 17.4269C5.50353 17.5914 5.10459 17.4691 4.93134 17.1519C4.86379 17.024 4.83998 16.8781 4.86347 16.7357L5.61759 12.4624C5.65406 12.2504 5.58375 12.0343 5.42906 11.8827L2.27684 8.85048C2.01905 8.59292 2.01905 8.17904 2.27684 7.92148C2.38205 7.82549 2.51284 7.76103 2.6539 7.73569L6.975 7.11141C7.19075 7.07613 7.37604 6.94057 7.47272 6.74724L9.40327 2.86777C9.47955 2.71047 9.61705 2.5902 9.78459 2.53423C9.95213 2.47826 10.1355 2.49134 10.2931 2.5705C10.4232 2.63549 10.5288 2.73962 10.5948 2.86777Z" stroke="#200E32" stroke-width="1.5" stroke-linecap="round" stroke-linejoin="round"/>
</svg>
